# xmcd
#
# Track frame offsets:
#	150
#	17054
#	49133
#	65290
#	79029
#	90371
#	103635
#	116831
#	127888
#	141666
#	166185
#	177287
#	189945
#	204215
#	226739
#	244947
#	255821
#	272337
#
# Disc length: 3787
#
# Revision: 2
# Processed by: cddbd v1.5.1PL0 Copyright (c) Steve Scherf et al.
# Submitted via: EasyCDDAExtractor 6.0.0.1
# Normalized: r1:DSETVAR1
#
DISCID=df0ec912
DTITLE=Various Artist - All Blues
DYEAR=2001
DGENRE=Blues
TTITLE0=Billie Holiday - Lady sings the blues
TTITLE1=Santana - Every day I have the blues
TTITLE2=B.B. King - It's my own fault baby
TTITLE3=Ella Fitzgerald - Basin street blues
TTITLE4=John Lee Hooker - Boom boom
TTITLE5=Howling Wolf - Highway 49
TTITLE6=Elmore James - Dust my broom
TTITLE7=Ray Charles - A sentimental blues
TTITLE8=Andy Lloyd - I Just want to make love to you
TTITLE9=Big Joe Turner - Shake, rattle and roll
TTITLE10=The James Cotton Blues Band - Good time Charlie
TTITLE11=Johnny Winter - Leavin' blues
TTITLE12=John Mayall - Why worry
TTITLE13=B.B. King - The thrill is gone
TTITLE14=Nina Simone - I loves you Porgy
TTITLE15=Carl Perkins - Dixie Fried
TTITLE16=The Animals - Don't you leave me baby
TTITLE17=Canned Heat - Got my Mojo working
EXTD=
EXTT0=
EXTT1=
EXTT2=
EXTT3=
EXTT4=
EXTT5=
EXTT6=
EXTT7=
EXTT8=
EXTT9=
EXTT10=
EXTT11=
EXTT12=
EXTT13=
EXTT14=
EXTT15=
EXTT16=
EXTT17=
PLAYORDER=
